<?xml version="1.0" encoding="UTF-8"?>
<svg id="Layer_1" xmlns="http://www.w3.org/2000/svg" viewBox="0 0 121.53 129.28">
  <defs>
    <style>
      .cls-1 {
        fill: #004cc0;
      }
    </style>
  </defs>
  <path class="cls-1" d="M112.22,4.65v52.07c0,21.1-26.36,30.69-39.92,14.52L15.16,3.07C13.53,1.12,11.12,0,8.58,0h0C3.84,0,0,3.84,0,8.58v116.05c0,2.57,2.08,4.65,4.65,4.65h0c2.57,0,4.65-2.08,4.65-4.65v-19.64c0-14.99,6.07-28.96,14.64-37.09,9.79-9.29,22.85-10.95,33.85,2.17l48.58,56.24c1.63,1.89,4,2.97,6.49,2.97h.07c4.74,0,8.58-3.84,8.58-8.58V4.65C121.53,2.08,119.44,0,116.87,0h0C114.3,0,112.22,2.08,112.22,4.65Z"/>
</svg>